<svg id="Layer_1" data-name="Layer 1" xmlns="http://www.w3.org/2000/svg" viewBox="0 0 897 96"><defs><style>.cls-1{fill:#212121;}</style></defs><title>Artboard 1</title><g id="Atom_Logo_Positive_vertical" data-name="Atom/Logo/Positive/vertical"><path class="cls-1" d="M35.17,96a60.91,60.91,0,0,1-19.86-3A41.85,41.85,0,0,1,0,83.74l3.48-6.47a45.45,45.45,0,0,0,14.37,8.84,50.92,50.92,0,0,0,17.32,2.64q12,0,18.72-4.88t6.69-13.72a11.26,11.26,0,0,0-3.28-8.37A22.89,22.89,0,0,0,49,56.7,107.37,107.37,0,0,0,35.7,53a133.08,133.08,0,0,1-17.85-4.94A29.3,29.3,0,0,1,6.28,40.35Q1.6,35.21,1.6,26.64a24.19,24.19,0,0,1,4.15-14A26.54,26.54,0,0,1,17.58,3.3,45,45,0,0,1,35.44,0,51.1,51.1,0,0,1,53.49,3.1,39.24,39.24,0,0,1,67.8,12.26l-3.48,6.47A46.81,46.81,0,0,0,50.68,10,41,41,0,0,0,35.44,7.25q-12,0-18.79,5.15T9.9,26.51q0,7.77,5.88,11.6T33,44.57l3.88.92a141.44,141.44,0,0,1,17,4.88,27.91,27.91,0,0,1,10.7,7.12Q69,62.24,69,70.15a22.8,22.8,0,0,1-4.15,13.52A26.64,26.64,0,0,1,53,92.77,45.89,45.89,0,0,1,35.17,96ZM89,96V2h59V9H97.2V44.64h48.11V51.9H97.2V89H148v7ZM208.79,85.11,240.47,8H194V2h57L212.18,96H205L167,2h8.06ZM270,96V2h59V9H278.2V44.64h48.11V51.9H278.2V89H329v7ZM416.41,2H424V96h-6.28L358.59,15.86V96H351V2h6.41l59,80.14ZM483,96V2h7.93V88.87H538V96Zm145.75,0L618.31,70.92H568.82L558.25,96H550L590,2h7.21L637,96ZM572,62h43L593.56,11ZM716.41,2H724V96h-6.28L658.59,15.86V96H651V2h6.41l59,80.14ZM755,96V2h59V9H763.2V44.64h48.11V51.9H763.2V89H814v7Zm108.17,0a60.91,60.91,0,0,1-19.86-3A41.85,41.85,0,0,1,828,83.74l3.48-6.47a45.45,45.45,0,0,0,14.37,8.84,50.92,50.92,0,0,0,17.32,2.64q12,0,18.72-4.88t6.69-13.72a11.26,11.26,0,0,0-3.28-8.37A22.89,22.89,0,0,0,877,56.7,107.37,107.37,0,0,0,863.7,53a133.08,133.08,0,0,1-17.85-4.94,29.3,29.3,0,0,1-11.57-7.72q-4.68-5.15-4.68-13.71a24.19,24.19,0,0,1,4.15-14A26.54,26.54,0,0,1,845.58,3.3,45,45,0,0,1,863.44,0a51.1,51.1,0,0,1,18,3.1,39.24,39.24,0,0,1,14.31,9.16l-3.48,6.47A46.81,46.81,0,0,0,878.68,10a41,41,0,0,0-15.24-2.77q-12,0-18.79,5.15T837.9,26.51q0,7.77,5.88,11.6T861,44.57l3.88.92a141.44,141.44,0,0,1,17,4.88,27.91,27.91,0,0,1,10.7,7.12Q897,62.24,897,70.15a22.8,22.8,0,0,1-4.15,13.52A26.64,26.64,0,0,1,881,92.77,45.89,45.89,0,0,1,863.17,96Z"/></g></svg>